<svg xmlns="http://www.w3.org/2000/svg" width="48" height="48" viewBox="0 0 440 509" version="1.1"><path d="M 25 3 C 23.172 4.181, 24.751 4.181, 27.500 3 C 28.819 2.433, 28.989 2.122, 28 2.086 C 27.175 2.055, 25.825 2.467, 25 3 M 383.750 5.068 C 381.688 6.157, 380 7.271, 380 7.544 C 380 7.817, 381.688 7.194, 383.750 6.159 C 385.813 5.124, 388.175 4.026, 389 3.718 C 390.333 3.220, 390.333 3.154, 389 3.123 C 388.175 3.104, 385.813 3.979, 383.750 5.068 M 423 5.234 C 423.275 5.533, 425.750 7.466, 428.500 9.529 C 431.445 11.739, 432.600 12.298, 431.310 10.890 C 430.105 9.576, 427.630 7.643, 425.810 6.594 C 423.989 5.546, 422.725 4.934, 423 5.234 M 61 6.449 C 61 6.724, 62.350 7.647, 64 8.500 C 65.650 9.353, 67 9.826, 67 9.551 C 67 9.276, 65.650 8.353, 64 7.500 C 62.350 6.647, 61 6.174, 61 6.449 M 12.887 10.750 C 9.703 14.271, 7.641 17, 8.166 17 C 8.392 17, 10.269 14.975, 12.338 12.500 C 16.468 7.559, 16.837 6.382, 12.887 10.750 M 435.094 17 C 437.991 21.490, 438.001 21.501, 437.995 20.417 C 437.992 19.912, 436.830 18.150, 435.412 16.500 L 432.835 13.500 435.094 17 M 362.966 20.750 L 357.500 26.500 363.250 21.034 C 368.592 15.956, 369.458 15, 368.716 15 C 368.560 15, 365.972 17.587, 362.966 20.750 M 5.954 20.086 C 5.340 21.233, 5.026 22.360, 5.257 22.590 C 5.487 22.820, 6.189 21.882, 6.816 20.504 C 8.194 17.480, 7.523 17.154, 5.954 20.086 M 80 21 C 81.175 22.650, 82.361 24, 82.636 24 C 82.911 24, 82.175 22.650, 81 21 C 79.825 19.350, 78.639 18, 78.364 18 C 78.089 18, 78.825 19.350, 80 21 M 3.624 25.539 C 3.281 26.432, 3.029 27.689, 3.063 28.332 C 3.098 28.974, 3.558 28.422, 4.085 27.105 C 4.612 25.787, 4.864 24.531, 4.645 24.312 C 4.426 24.093, 3.966 24.645, 3.624 25.539 M 87 28.500 C 88.866 30.425, 90.617 32, 90.892 32 C 91.167 32, 89.866 30.425, 88 28.500 C 86.134 26.575, 84.383 25, 84.108 25 C 83.833 25, 85.134 26.575, 87 28.500 M 354.924 29.750 L 352.500 32.500 355.250 30.076 C 356.762 28.742, 358 27.505, 358 27.326 C 358 26.541, 357.190 27.180, 354.924 29.750 M 2.195 32.500 C 2.215 34.150, 2.439 34.704, 2.693 33.731 C 2.947 32.758, 2.930 31.408, 2.656 30.731 C 2.382 30.054, 2.175 30.850, 2.195 32.500 M 346 40.500 C 342.629 44.625, 340.097 48, 340.372 48 C 340.647 48, 343.629 44.625, 347 40.500 C 350.371 36.375, 352.903 33, 352.628 33 C 352.353 33, 349.371 36.375, 346 40.500 M 97 40.500 C 98.292 41.875, 99.574 43, 99.849 43 C 100.124 43, 99.292 41.875, 98 40.500 C 96.708 39.125, 95.426 38, 95.151 38 C 94.876 38, 95.708 39.125, 97 40.500 M 110 56.500 C 111.292 57.875, 112.574 59, 112.849 59 C 113.124 59, 112.292 57.875, 111 56.500 C 109.708 55.125, 108.426 54, 108.151 54 C 107.876 54, 108.708 55.125, 110 56.500 M 316.065 77.750 C 312.644 82.013, 311.342 83.899, 313.172 81.943 C 319.848 74.806, 323.683 70, 322.702 70 C 322.473 70, 319.487 73.487, 316.065 77.750 M 26.240 232.550 L 26.481 384.500 26.990 233.500 C 27.271 150.450, 27.163 82.073, 26.750 81.550 C 26.337 81.027, 26.108 148.978, 26.240 232.550 M 47 120.500 C 48.866 122.425, 50.617 124, 50.892 124 C 51.167 124, 49.866 122.425, 48 120.500 C 46.134 118.575, 44.383 117, 44.108 117 C 43.833 117, 45.134 118.575, 47 120.500 M 279.957 122.250 C 278.100 124.588, 277.370 125.865, 278.337 125.089 C 280.157 123.627, 284.442 118, 283.735 118 C 283.515 118, 281.815 119.912, 279.957 122.250 M 251.924 156.750 L 249.500 159.500 252.250 157.076 C 254.820 154.810, 255.459 154, 254.674 154 C 254.495 154, 253.258 155.238, 251.924 156.750 M 116 165.313 C 116 165.485, 117.463 166.948, 119.250 168.563 L 122.500 171.500 119.563 168.250 C 116.825 165.221, 116 164.540, 116 165.313 M 238.924 172.750 L 236.500 175.500 239.250 173.076 C 241.820 170.810, 242.459 170, 241.674 170 C 241.495 170, 240.258 171.238, 238.924 172.750 M 232.453 180.250 L 228.500 184.500 232.750 180.547 C 235.088 178.373, 237 176.460, 237 176.297 C 237 175.540, 236.129 176.298, 232.453 180.250 M 212.167 181.250 C 214.233 183.313, 216.502 184.986, 217.211 184.970 C 217.920 184.953, 217.600 184.444, 216.500 183.838 C 215.400 183.232, 213.130 181.558, 211.456 180.118 C 209.760 178.660, 210.076 179.161, 212.167 181.250 M 222.500 185 L 218.500 185.716 222 185.843 C 223.925 185.912, 226.175 185.533, 227 185 C 228.636 183.943, 228.406 183.943, 222.500 185 M 128.998 339.262 L 128.500 484.024 124.500 481.326 C 122.300 479.842, 121.028 479.274, 121.673 480.064 C 122.318 480.854, 124.234 482.315, 125.931 483.311 C 128.347 484.730, 129.124 484.838, 129.515 483.811 C 129.789 483.090, 129.898 417.700, 129.755 338.500 L 129.497 194.500 128.998 339.262 M 304.860 252.750 C 301.983 256.223, 300.765 258, 301.259 258 C 301.536 258, 302.964 256.425, 304.432 254.500 C 307.157 250.928, 307.487 249.579, 304.860 252.750 M 154 273.678 C 154 274.235, 155.012 275.547, 156.250 276.595 L 158.500 278.500 156.511 276 C 155.417 274.625, 154.404 273.313, 154.261 273.083 C 154.117 272.854, 154 273.122, 154 273.678 M 177 302.500 C 178.292 303.875, 179.574 305, 179.849 305 C 180.124 305, 179.292 303.875, 178 302.500 C 176.708 301.125, 175.426 300, 175.151 300 C 174.876 300, 175.708 301.125, 177 302.500 M 183 307.277 C 183 307.468, 184.463 308.695, 186.250 310.003 C 188.261 311.475, 188.960 311.717, 188.082 310.637 C 186.751 308.997, 183 306.517, 183 307.277 M 218.250 320.728 C 220.313 320.944, 223.688 320.944, 225.750 320.728 C 227.813 320.513, 226.125 320.336, 222 320.336 C 217.875 320.336, 216.188 320.513, 218.250 320.728 M 2.232 397 C 2.232 398.925, 2.438 399.712, 2.689 398.750 C 2.941 397.788, 2.941 396.212, 2.689 395.250 C 2.438 394.288, 2.232 395.075, 2.232 397 M 351.985 404.083 C 353.698 406.604, 357.652 411.104, 360.771 414.083 L 366.443 419.500 360.468 413 C 357.182 409.425, 353.228 404.925, 351.682 403 C 349.244 399.964, 349.284 400.108, 351.985 404.083 M 31 411.383 C 31 412.456, 33.975 418, 34.551 418 C 34.826 418, 34.308 416.538, 33.399 414.750 C 31.542 411.100, 31 410.339, 31 411.383 M 37.964 423.836 C 38.623 425.120, 39.436 425.897, 39.771 425.562 C 40.107 425.227, 39.568 424.176, 38.574 423.226 C 36.846 421.576, 36.819 421.603, 37.964 423.836 M 371.433 422.891 C 372.146 424.045, 376 426.374, 376 425.650 C 376 425.419, 374.820 424.457, 373.377 423.511 C 371.934 422.566, 371.059 422.287, 371.433 422.891 M 377 426.493 C 377 427.170, 385.123 431.211, 385.575 430.758 C 385.785 430.549, 383.941 429.398, 381.478 428.202 C 379.015 427.005, 377 426.236, 377 426.493 M 402.269 435.693 C 403.242 435.947, 404.592 435.930, 405.269 435.656 C 405.946 435.382, 405.150 435.175, 403.500 435.195 C 401.850 435.215, 401.296 435.439, 402.269 435.693 M 416.797 436.745 C 421.361 436.930, 428.561 436.929, 432.797 436.742 C 437.034 436.555, 433.300 436.404, 424.500 436.405 C 415.700 436.406, 412.234 436.559, 416.797 436.745 M 59.500 440.518 C 60.600 441.414, 62.400 442.588, 63.500 443.128 L 65.500 444.110 63.500 442.482 C 62.400 441.586, 60.600 440.412, 59.500 439.872 L 57.500 438.890 59.500 440.518 M 153.232 487 C 153.232 488.925, 153.438 489.712, 153.689 488.750 C 153.941 487.788, 153.941 486.212, 153.689 485.250 C 153.438 484.288, 153.232 485.075, 153.232 487" stroke="none" fill="#bcbcbc" fill-rule="evenodd"/><path d="M 27.836 2.919 C 24.721 3.915, 20.523 5.750, 18.506 6.996 C 13.581 10.040, 7.659 17.723, 4.823 24.748 L 2.500 30.500 2.500 215.500 L 2.500 400.500 4.709 408.777 C 7.464 419.104, 12.657 430.306, 17.916 437.273 C 24.877 446.493, 31.371 451.482, 60 469.611 C 64.125 472.223, 73.125 477.951, 80 482.340 C 122.088 509.209, 122.862 509.604, 131.691 508.692 C 140.519 507.781, 148.149 502.365, 151.702 494.486 C 153.391 490.741, 153.516 484.021, 153.758 383.500 C 153.899 324.650, 154.012 275.671, 154.008 274.658 C 154.003 273.495, 155.935 275.295, 159.250 279.543 C 176.091 301.123, 179.837 304.994, 191.086 312.444 C 200.807 318.881, 222.559 321.828, 236.387 318.582 C 249.789 315.436, 263.357 306.030, 273.289 293 C 274.756 291.075, 280.985 283.200, 287.131 275.500 C 293.276 267.800, 299.699 259.630, 301.402 257.345 C 303.106 255.060, 311.700 244.126, 320.500 233.047 L 336.500 212.904 337.022 291.702 L 337.545 370.500 340.331 379.469 C 341.864 384.401, 343.634 389.059, 344.265 389.819 C 344.896 390.580, 345.500 391.801, 345.608 392.533 C 345.951 394.875, 353.242 405.148, 358.889 411.247 C 365.513 418.401, 374.431 424.903, 383.338 429.071 C 394.768 434.420, 398.939 435.172, 420.250 435.723 L 440 436.234 440 231.313 L 440 26.393 437.296 20.966 C 431.334 9.002, 420.626 2.105, 406.766 1.301 C 397.074 0.738, 390.019 2.580, 379.645 8.382 C 368.302 14.725, 361.809 21.640, 331.251 59.915 C 317.179 77.541, 317.101 77.637, 307.738 88.931 C 293.226 106.436, 288.472 112.280, 284.881 117.028 C 280.599 122.689, 244.519 166.990, 236.705 176.179 C 228.466 185.870, 224.047 187.718, 216.576 184.596 C 213.427 183.280, 210.340 179.870, 193.314 158.890 C 190.461 155.376, 184.611 148.172, 180.314 142.882 C 176.016 137.592, 169.125 129.094, 165 123.998 C 160.875 118.903, 157.026 114.231, 156.446 113.617 C 155.867 113.003, 153.392 109.993, 150.946 106.928 C 144.716 99.120, 119.224 67.605, 104.500 49.507 C 100.100 44.099, 94.659 37.385, 92.408 34.587 C 70.627 7.507, 48.074 -3.553, 27.836 2.919 M 26.024 230.191 C 26.037 312.311, 26.460 384.675, 26.964 391 C 28.822 414.321, 35.332 424.780, 56.693 438.763 C 61.749 442.073, 65.574 445.128, 65.193 445.551 C 64.812 445.974, 65.025 446.020, 65.667 445.652 C 66.309 445.285, 69.459 446.716, 72.667 448.833 C 75.875 450.951, 87.950 458.685, 99.500 466.020 C 111.050 473.356, 122.268 480.637, 124.429 482.200 C 126.590 483.763, 128.739 484.661, 129.205 484.195 C 129.670 483.730, 129.927 417.008, 129.776 335.924 L 129.500 188.500 127.213 182.171 C 122.458 169.014, 119.839 166.487, 98 153.986 C 82.292 144.995, 64.585 134.135, 59 130.067 C 49.381 123.061, 38.731 111.075, 34.060 102 C 31.048 96.147, 28 87.296, 28 84.402 C 28 83.146, 27.550 81.840, 27 81.500 C 26.335 81.089, 26.008 130.900, 26.024 230.191" stroke="none" fill="#307fe2" fill-rule="evenodd"/></svg>